<svg xmlns="http://www.w3.org/2000/svg" width="15.106" height="18.397" viewBox="0 0 15.106 18.397"><defs><style>.a{fill:#454545;}</style></defs><path class="a" d="M115.375,9.059h-1.218V4.132c0-2.278-2.514-4.132-5.6-4.132s-5.6,1.854-5.6,4.132V9.059h-1.218c-.4,0-.731.241-.731.539v8.26c0,.3.327.539.731.539h13.644c.4,0,.731-.241.731-.539V9.6C116.106,9.3,115.779,9.059,115.375,9.059ZM104.411,4.132c0-1.684,1.858-3.054,4.142-3.054s4.142,1.37,4.142,3.054V9.059h-8.284Zm10.233,13.187H102.462V10.137h12.182Z" transform="translate(-101)"/><g transform="translate(5.604 10.609)"><g transform="translate(0 0)"><path class="a" d="M217.949,322.063a1.949,1.949,0,0,0-.731,3.756v1.361a.731.731,0,0,0,1.462,0v-1.361a1.949,1.949,0,0,0-.731-3.756Zm0,2.436a.487.487,0,1,1,.487-.487A.488.488,0,0,1,217.949,324.5Z" transform="translate(-216 -322.063)"/></g></g></svg>