<svg xmlns="http://www.w3.org/2000/svg" width="21.381" height="21.381" viewBox="0 0 21.381 21.381"><defs><style>.a{fill:none;}.b{fill:#454545;}</style></defs><path class="a" d="M0,0H21.381V21.381H0Z"/><path class="b" d="M11.127,5.454V8.127L14.69,4.563,11.127,1V3.673A7.114,7.114,0,0,0,5.1,14.595l1.3-1.3A5.23,5.23,0,0,1,5.782,10.8,5.349,5.349,0,0,1,11.127,5.454ZM17.149,7l-1.3,1.3a5.336,5.336,0,0,1-4.722,7.84V13.472L7.563,17.036,11.127,20.6V17.926A7.114,7.114,0,0,0,17.149,7Z" transform="translate(-0.437 -0.109)"/></svg>